<?xml version="1.0" standalone="no"?><!DOCTYPE svg PUBLIC "-//W3C//DTD SVG 1.1//EN" "http://www.w3.org/Graphics/SVG/1.1/DTD/svg11.dtd"><svg t="1718849910321" class="icon" viewBox="0 0 1024 1024" version="1.1" xmlns="http://www.w3.org/2000/svg" p-id="999" xmlns:xlink="http://www.w3.org/1999/xlink" width="200" height="200"><path d="M796.16 87.68H227.84A163.84 163.84 0 0 0 64 251.52v373.76a163.84 163.84 0 0 0 163.84 163.84h37.12l-97.28 97.28a29.44 29.44 0 0 0 20.48 49.92 30.08 30.08 0 0 0 20.48-8.96l138.24-138.24h330.24l138.24 138.24a30.08 30.08 0 0 0 20.48 8.96 29.44 29.44 0 0 0 20.48-49.92l-97.28-97.28h37.12A163.84 163.84 0 0 0 960 625.28V251.52a163.84 163.84 0 0 0-163.84-163.84z m105.6 537.6a105.6 105.6 0 0 1-105.6 105.6H227.84a105.6 105.6 0 0 1-105.6-105.6V251.52a105.6 105.6 0 0 1 105.6-105.6h568.32a105.6 105.6 0 0 1 105.6 105.6z" fill="#606266" p-id="1000"></path><path d="M464.64 305.92a49.92 49.92 0 0 0-75.52 42.88v179.84a49.92 49.92 0 0 0 76.8 41.6l145.92-92.8a49.92 49.92 0 0 0 0-85.12z" fill="#606266" p-id="1001"></path></svg>